<?xml version="1.0" encoding="UTF-8"?>
<svg width="800px" height="600px" viewBox="0 0 800 600" version="1.1" xmlns="http://www.w3.org/2000/svg">
    <g stroke="none" stroke-width="1" fill="currentColor" fill-rule="evenodd">
        <path d="M650,300 C650,250 600,200 550,200 L450,200 L400,250 L350,200 L250,200 C200,200 150,250 150,300 C150,350 200,400 250,400 L350,400 L400,350 L450,400 L550,400 C600,400 650,350 650,300 Z M300,300 C300,275 275,250 250,250 C225,250 200,275 200,300 C200,325 225,350 250,350 C275,350 300,325 300,300 Z M600,300 C600,275 575,250 550,250 C525,250 500,275 500,300 C500,325 525,350 550,350 C575,350 600,325 600,300 Z"></path>
    </g>
</svg>
